# xmcd
#
# Track frame offsets:
#	183
#	15843
#	28850
#	41513
#	54330
#	68863
#	81073
#	97128
#	111875
#	123863
#	137948
#	151525
#	163703
#	177770
#
# Disc length: 2556 seconds
#
# Revision: 1
# Processed by: cddbd v1.5.2PL0 Copyright (c) Steve Scherf et al.
# Submitted via: audiograbber 1.83.01
#
DISCID=a909fa0e
DTITLE=Aurelio Fierro - Aurelio Fierro canta Napoli
DYEAR=1994
DGENRE=Folk
TTITLE0='A pizza c'a pummarola
TTITLE1=Comme facette mammeta
TTITLE2=Storta va deritta vene
TTITLE3=Chella llà
TTITLE4=Serenata a Carulina
TTITLE5=Biudulella
TTITLE6=Nanassa
TTITLE7='O nzisto
TTITLE8='O nfinfero
TTITLE9=Io e Ciccio cha cha cha
TTITLE10='O fachiro
TTITLE11='A Luciana
TTITLE12='O sciupafemmene
TTITLE13='O treno d'a fantasia
EXTD=
EXTT0=
EXTT1=
EXTT2=
EXTT3=
EXTT4=
EXTT5=
EXTT6=
EXTT7=
EXTT8=
EXTT9=
EXTT10=
EXTT11=
EXTT12=
EXTT13=
PLAYORDER=
